<mxfile host="Electron" modified="2024-02-22T10:16:33.062Z" agent="Mozilla/5.0 (X11; Linux x86_64) AppleWebKit/537.36 (KHTML, like Gecko) draw.io/22.1.21 Chrome/120.0.6099.109 Electron/28.1.0 Safari/537.36" etag="OgOR9E2moXfFjA1UsjGz" version="22.1.21" type="device">
  <diagram name="StrÃ¡nka-1" id="elV8rFbGL1NgoKadewW1">
    <mxGraphModel dx="794" dy="832" grid="1" gridSize="10" guides="1" tooltips="1" connect="1" arrows="1" fold="1" page="1" pageScale="1" pageWidth="1654" pageHeight="2336" math="1" shadow="0">
      <root>
        <mxCell id="0" />
        <mxCell id="1" parent="0" />
        <mxCell id="HHsBuXF4o16a0b7N-zm0-21" value="" style="rounded=1;whiteSpace=wrap;html=1;strokeWidth=5;dashed=1;strokeColor=#454545;" parent="1" vertex="1">
          <mxGeometry x="1000" y="500" width="480" height="360" as="geometry" />
        </mxCell>
        <mxCell id="HHsBuXF4o16a0b7N-zm0-17" style="rounded=0;orthogonalLoop=1;jettySize=auto;html=1;endArrow=open;endFill=0;strokeWidth=5;strokeColor=#454545;exitX=1;exitY=1;exitDx=0;exitDy=0;entryX=0;entryY=0.5;entryDx=0;entryDy=0;" parent="1" edge="1">
          <mxGeometry relative="1" as="geometry">
            <mxPoint x="1440" y="679.77" as="sourcePoint" />
            <mxPoint x="1524" y="680.11" as="targetPoint" />
          </mxGeometry>
        </mxCell>
        <mxCell id="4ET7x0pr7HxU3ARI9NAl-24" style="rounded=0;orthogonalLoop=1;jettySize=auto;html=1;endArrow=open;endFill=0;strokeWidth=5;strokeColor=#454545;entryX=0.025;entryY=0.325;entryDx=0;entryDy=0;exitX=1;exitY=1;exitDx=0;exitDy=0;entryPerimeter=0;" parent="1" source="HHsBuXF4o16a0b7N-zm0-28" target="HHsBuXF4o16a0b7N-zm0-2" edge="1">
          <mxGeometry relative="1" as="geometry">
            <mxPoint x="1000" y="490" as="sourcePoint" />
            <mxPoint x="1080" y="560" as="targetPoint" />
          </mxGeometry>
        </mxCell>
        <mxCell id="4ET7x0pr7HxU3ARI9NAl-27" style="rounded=0;orthogonalLoop=1;jettySize=auto;html=1;endArrow=open;endFill=0;strokeWidth=5;strokeColor=#454545;entryX=0;entryY=0.5;entryDx=0;entryDy=0;" parent="1" target="HHsBuXF4o16a0b7N-zm0-3" edge="1">
          <mxGeometry relative="1" as="geometry">
            <mxPoint x="960" y="600" as="sourcePoint" />
            <mxPoint x="1070" y="630" as="targetPoint" />
          </mxGeometry>
        </mxCell>
        <mxCell id="4ET7x0pr7HxU3ARI9NAl-29" style="rounded=0;orthogonalLoop=1;jettySize=auto;html=1;endArrow=open;endFill=0;strokeWidth=5;strokeColor=#454545;entryX=0;entryY=0.5;entryDx=0;entryDy=0;" parent="1" target="HHsBuXF4o16a0b7N-zm0-4" edge="1">
          <mxGeometry relative="1" as="geometry">
            <mxPoint x="960" y="685" as="sourcePoint" />
            <mxPoint x="1050" y="705" as="targetPoint" />
          </mxGeometry>
        </mxCell>
        <mxCell id="4ET7x0pr7HxU3ARI9NAl-32" style="rounded=0;orthogonalLoop=1;jettySize=auto;html=1;endArrow=open;endFill=0;strokeWidth=5;strokeColor=#454545;entryX=0.119;entryY=0.65;entryDx=0;entryDy=0;entryPerimeter=0;" parent="1" target="HHsBuXF4o16a0b7N-zm0-5" edge="1">
          <mxGeometry relative="1" as="geometry">
            <mxPoint x="960" y="780" as="sourcePoint" />
            <mxPoint x="1090" y="750" as="targetPoint" />
          </mxGeometry>
        </mxCell>
        <mxCell id="4ET7x0pr7HxU3ARI9NAl-34" style="rounded=0;orthogonalLoop=1;jettySize=auto;html=1;endArrow=open;endFill=0;strokeWidth=5;strokeColor=#454545;entryX=0.093;entryY=0.65;entryDx=0;entryDy=0;entryPerimeter=0;exitX=1;exitY=0.5;exitDx=0;exitDy=0;" parent="1" source="HHsBuXF4o16a0b7N-zm0-34" target="HHsBuXF4o16a0b7N-zm0-6" edge="1">
          <mxGeometry relative="1" as="geometry">
            <mxPoint x="970" y="860" as="sourcePoint" />
            <mxPoint x="1160" y="780" as="targetPoint" />
          </mxGeometry>
        </mxCell>
        <mxCell id="HHsBuXF4o16a0b7N-zm0-2" value="&lt;font style=&quot;font-size: 20px;&quot;&gt;\(w_1\)&lt;/font&gt;" style="ellipse;whiteSpace=wrap;html=1;aspect=fixed;strokeWidth=4;" parent="1" vertex="1">
          <mxGeometry x="1110" y="540" width="40" height="40" as="geometry" />
        </mxCell>
        <mxCell id="HHsBuXF4o16a0b7N-zm0-3" value="&lt;font style=&quot;font-size: 20px;&quot;&gt;\(w_2\)&lt;/font&gt;" style="ellipse;whiteSpace=wrap;html=1;aspect=fixed;strokeWidth=4;" parent="1" vertex="1">
          <mxGeometry x="1070" y="600" width="40" height="40" as="geometry" />
        </mxCell>
        <mxCell id="HHsBuXF4o16a0b7N-zm0-4" value="&lt;font style=&quot;font-size: 20px;&quot;&gt;\(w_3\)&lt;/font&gt;" style="ellipse;whiteSpace=wrap;html=1;aspect=fixed;strokeWidth=4;" parent="1" vertex="1">
          <mxGeometry x="1050" y="665" width="40" height="40" as="geometry" />
        </mxCell>
        <mxCell id="HHsBuXF4o16a0b7N-zm0-5" value="&lt;font style=&quot;font-size: 20px;&quot;&gt;\(w_4\)&lt;/font&gt;" style="ellipse;whiteSpace=wrap;html=1;aspect=fixed;strokeWidth=4;" parent="1" vertex="1">
          <mxGeometry x="1070" y="720" width="40" height="40" as="geometry" />
        </mxCell>
        <mxCell id="HHsBuXF4o16a0b7N-zm0-6" value="&lt;font style=&quot;font-size: 20px;&quot;&gt;\(w_5\)&lt;/font&gt;" style="ellipse;whiteSpace=wrap;html=1;aspect=fixed;strokeWidth=4;" parent="1" vertex="1">
          <mxGeometry x="1100" y="780" width="40" height="40" as="geometry" />
        </mxCell>
        <mxCell id="HHsBuXF4o16a0b7N-zm0-7" value="&lt;font style=&quot;font-size: 35px;&quot;&gt;\(b\)&lt;/font&gt;" style="text;html=1;strokeColor=none;fillColor=none;align=center;verticalAlign=middle;whiteSpace=wrap;rounded=0;" parent="1" vertex="1">
          <mxGeometry x="1195" y="530" width="60" height="40" as="geometry" />
        </mxCell>
        <mxCell id="HHsBuXF4o16a0b7N-zm0-8" style="rounded=0;orthogonalLoop=1;jettySize=auto;html=1;endArrow=open;endFill=0;strokeWidth=5;strokeColor=#454545;entryX=0.5;entryY=0;entryDx=0;entryDy=0;exitX=0.5;exitY=1;exitDx=0;exitDy=0;" parent="1" source="HHsBuXF4o16a0b7N-zm0-7" target="HHsBuXF4o16a0b7N-zm0-1" edge="1">
          <mxGeometry relative="1" as="geometry">
            <mxPoint x="1220" y="570" as="sourcePoint" />
            <mxPoint x="1370" y="620" as="targetPoint" />
          </mxGeometry>
        </mxCell>
        <mxCell id="HHsBuXF4o16a0b7N-zm0-9" style="rounded=0;orthogonalLoop=1;jettySize=auto;html=1;endArrow=open;endFill=0;strokeWidth=5;strokeColor=#454545;entryX=0.25;entryY=0;entryDx=0;entryDy=0;exitX=1;exitY=1;exitDx=0;exitDy=0;" parent="1" source="HHsBuXF4o16a0b7N-zm0-2" target="HHsBuXF4o16a0b7N-zm0-1" edge="1">
          <mxGeometry relative="1" as="geometry">
            <mxPoint x="1140" y="570" as="sourcePoint" />
            <mxPoint x="1290" y="620" as="targetPoint" />
          </mxGeometry>
        </mxCell>
        <mxCell id="HHsBuXF4o16a0b7N-zm0-10" style="rounded=0;orthogonalLoop=1;jettySize=auto;html=1;endArrow=open;endFill=0;strokeWidth=5;strokeColor=#454545;entryX=0;entryY=0.25;entryDx=0;entryDy=0;exitX=1;exitY=1;exitDx=0;exitDy=0;" parent="1" target="HHsBuXF4o16a0b7N-zm0-1" edge="1">
          <mxGeometry relative="1" as="geometry">
            <mxPoint x="1110" y="630" as="sourcePoint" />
            <mxPoint x="1164" y="686" as="targetPoint" />
          </mxGeometry>
        </mxCell>
        <mxCell id="HHsBuXF4o16a0b7N-zm0-11" style="rounded=0;orthogonalLoop=1;jettySize=auto;html=1;endArrow=open;endFill=0;strokeWidth=5;strokeColor=#454545;entryX=0;entryY=0.5;entryDx=0;entryDy=0;" parent="1" target="HHsBuXF4o16a0b7N-zm0-1" edge="1">
          <mxGeometry relative="1" as="geometry">
            <mxPoint x="1090" y="685" as="sourcePoint" />
            <mxPoint x="1150" y="708" as="targetPoint" />
          </mxGeometry>
        </mxCell>
        <mxCell id="HHsBuXF4o16a0b7N-zm0-13" style="rounded=0;orthogonalLoop=1;jettySize=auto;html=1;endArrow=open;endFill=0;strokeWidth=5;strokeColor=#454545;entryX=0.018;entryY=0.773;entryDx=0;entryDy=0;exitX=1.038;exitY=0.314;exitDx=0;exitDy=0;exitPerimeter=0;entryPerimeter=0;" parent="1" source="HHsBuXF4o16a0b7N-zm0-5" target="HHsBuXF4o16a0b7N-zm0-1" edge="1">
          <mxGeometry relative="1" as="geometry">
            <mxPoint x="1110" y="740" as="sourcePoint" />
            <mxPoint x="1170" y="768" as="targetPoint" />
          </mxGeometry>
        </mxCell>
        <mxCell id="HHsBuXF4o16a0b7N-zm0-14" style="rounded=0;orthogonalLoop=1;jettySize=auto;html=1;endArrow=open;endFill=0;strokeWidth=5;strokeColor=#454545;entryX=0.25;entryY=1;entryDx=0;entryDy=0;exitX=1;exitY=0;exitDx=0;exitDy=0;" parent="1" source="HHsBuXF4o16a0b7N-zm0-6" target="HHsBuXF4o16a0b7N-zm0-1" edge="1">
          <mxGeometry relative="1" as="geometry">
            <mxPoint x="1150" y="777" as="sourcePoint" />
            <mxPoint x="1210" y="750" as="targetPoint" />
          </mxGeometry>
        </mxCell>
        <mxCell id="HHsBuXF4o16a0b7N-zm0-15" style="rounded=0;orthogonalLoop=1;jettySize=auto;html=1;endArrow=open;endFill=0;strokeWidth=5;strokeColor=#454545;exitX=1;exitY=1;exitDx=0;exitDy=0;" parent="1" edge="1">
          <mxGeometry relative="1" as="geometry">
            <mxPoint x="1280" y="679.77" as="sourcePoint" />
            <mxPoint x="1330" y="679.77" as="targetPoint" />
          </mxGeometry>
        </mxCell>
        <mxCell id="HHsBuXF4o16a0b7N-zm0-16" value="&lt;font style=&quot;font-size: 50px;&quot;&gt;\(\phi\)&lt;/font&gt;" style="whiteSpace=wrap;html=1;aspect=fixed;strokeWidth=5;rounded=1;arcSize=36;" parent="1" vertex="1">
          <mxGeometry x="1330" y="625" width="110" height="110" as="geometry" />
        </mxCell>
        <mxCell id="HHsBuXF4o16a0b7N-zm0-18" value="&lt;font style=&quot;font-size: 28px;&quot;&gt;\(A\)&lt;/font&gt;" style="text;html=1;strokeColor=none;fillColor=none;align=center;verticalAlign=middle;whiteSpace=wrap;rounded=0;" parent="1" vertex="1">
          <mxGeometry x="1524" y="665" width="26" height="30" as="geometry" />
        </mxCell>
        <mxCell id="HHsBuXF4o16a0b7N-zm0-22" value="&lt;font style=&quot;font-size: 30px;&quot;&gt;\(\text{Neuron}\)&lt;/font&gt;" style="text;html=1;strokeColor=none;fillColor=none;align=center;verticalAlign=middle;whiteSpace=wrap;rounded=0;" parent="1" vertex="1">
          <mxGeometry x="1135" y="460" width="180" height="30" as="geometry" />
        </mxCell>
        <mxCell id="HHsBuXF4o16a0b7N-zm0-1" value="&lt;font style=&quot;font-size: 50px;&quot;&gt;\(\Sigma\)&lt;/font&gt;" style="whiteSpace=wrap;html=1;aspect=fixed;strokeWidth=5;rounded=1;arcSize=36;" parent="1" vertex="1">
          <mxGeometry x="1170" y="625" width="110" height="110" as="geometry" />
        </mxCell>
        <mxCell id="HHsBuXF4o16a0b7N-zm0-26" value="&lt;font style=&quot;font-size: 35px;&quot;&gt;\(a_2\)&lt;/font&gt;" style="text;html=1;strokeColor=none;fillColor=none;align=center;verticalAlign=middle;whiteSpace=wrap;rounded=0;" parent="1" vertex="1">
          <mxGeometry x="900" y="580" width="60" height="30" as="geometry" />
        </mxCell>
        <mxCell id="HHsBuXF4o16a0b7N-zm0-28" value="&lt;font style=&quot;font-size: 35px;&quot;&gt;\(a_1\)&lt;/font&gt;" style="text;html=1;strokeColor=none;fillColor=none;align=center;verticalAlign=middle;whiteSpace=wrap;rounded=0;" parent="1" vertex="1">
          <mxGeometry x="900" y="490" width="60" height="30" as="geometry" />
        </mxCell>
        <mxCell id="HHsBuXF4o16a0b7N-zm0-31" value="&lt;font style=&quot;font-size: 35px;&quot;&gt;\(a_3\)&lt;/font&gt;" style="text;html=1;strokeColor=none;fillColor=none;align=center;verticalAlign=middle;whiteSpace=wrap;rounded=0;" parent="1" vertex="1">
          <mxGeometry x="900" y="670" width="60" height="30" as="geometry" />
        </mxCell>
        <mxCell id="HHsBuXF4o16a0b7N-zm0-33" value="&lt;font style=&quot;font-size: 35px;&quot;&gt;\(a_4\)&lt;/font&gt;" style="text;html=1;strokeColor=none;fillColor=none;align=center;verticalAlign=middle;whiteSpace=wrap;rounded=0;" parent="1" vertex="1">
          <mxGeometry x="900" y="760" width="60" height="30" as="geometry" />
        </mxCell>
        <mxCell id="HHsBuXF4o16a0b7N-zm0-34" value="&lt;font style=&quot;font-size: 35px;&quot;&gt;\(a_5\)&lt;/font&gt;" style="text;html=1;strokeColor=none;fillColor=none;align=center;verticalAlign=middle;whiteSpace=wrap;rounded=0;" parent="1" vertex="1">
          <mxGeometry x="900" y="850" width="60" height="30" as="geometry" />
        </mxCell>
      </root>
    </mxGraphModel>
  </diagram>
</mxfile>
